<?xml version="1.0" encoding="UTF-8"?><svg xmlns="http://www.w3.org/2000/svg" viewBox="0 0 193.12 57.5"><defs><style>.d{fill:none;}</style></defs><g id="a"/><g id="b"><g id="c"><path d="M111,57.5v-22.5h18v18h-4.5v-13.5h-9v6.75l4.5-4.5,3.38,3.38-12.38,12.38Zm20.25-4.5v-18l9,9,9-9v18h-4.5v-6.75l-4.5,4.5-4.5-4.5v6.75h-4.5Zm20.25,0v-4.5h18v4.5h-18Zm0-6.75v-4.5h18v4.5h-18Zm0-6.75v-4.5h18v4.5h-18Zm16.88,13.5l4.5-4.5h10.12l2.25-2.25h-13.5v-6.75l4.5-4.5h16.88l-4.5,4.5h-10.12l-2.25,2.25h13.5v6.75l-4.5,4.5h-16.88Z"/><path d="M0,53V17L12,5H48l-12,12H18l-6,6v18h24v-6H15l12-12h21v30H0Z"/><path d="M55,53V17l12-12h36l-12,12h-18l-6,6v18h24v-6h-21l12-12h21v30H55Z"/><rect class="d" x="68.02" width="15.04" height="5"/></g></g></svg>